TITLE ""
FILE "1Q_t_1978-1987.mp3" MP3
  TRACK 01 AUDIO
    TITLE "1Q_t_1978-1987_01"
    INDEX 01 00:00:00
  TRACK 02 AUDIO
    TITLE "1Q_t_1978-1987_02"
    INDEX 01 00:00:08
  TRACK 03 AUDIO
    TITLE "1Q_t_1978-1987_03"
    INDEX 01 00:01:25
  TRACK 04 AUDIO
    TITLE "1Q_t_1978-1987_04"
    INDEX 01 00:01:37
  TRACK 05 AUDIO
    TITLE "1Q_t_1978-1987_05"
    INDEX 01 00:04:16
  TRACK 06 AUDIO
    TITLE "1Q_t_1978-1987_06"
    INDEX 01 00:04:26
  TRACK 07 AUDIO
    TITLE "1Q_t_1978-1987_07"
    INDEX 01 00:09:74
  TRACK 08 AUDIO
    TITLE "1Q_t_1978-1987_08"
    INDEX 01 00:10:44
  TRACK 09 AUDIO
    TITLE "1Q_t_1978-1987_09"
    INDEX 01 00:11:71
  TRACK 10 AUDIO
    TITLE "1Q_t_1978-1987_10"
    INDEX 01 00:12:12
  TRACK 11 AUDIO
    TITLE "1Q_t_1978-1987_11"
    INDEX 01 00:14:03
  TRACK 12 AUDIO
    TITLE "1Q_t_1978-1987_12"
    INDEX 01 00:14:12
  TRACK 13 AUDIO
    TITLE "1Q_t_1978-1987_13"
    INDEX 01 00:18:53
  TRACK 14 AUDIO
    TITLE "1Q_t_1978-1987_14"
    INDEX 01 00:19:25
  TRACK 15 AUDIO
    TITLE "1Q_t_1978-1987_15"
    INDEX 01 00:20:37
  TRACK 16 AUDIO
    TITLE "1Q_t_1978-1987_16"
    INDEX 01 00:20:46
  TRACK 17 AUDIO
    TITLE "1Q_t_1978-1987_17"
    INDEX 01 00:23:03
  TRACK 18 AUDIO
    TITLE "1Q_t_1978-1987_18"
    INDEX 01 00:23:09
  TRACK 19 AUDIO
    TITLE "1Q_t_1978-1987_19"
    INDEX 01 00:28:09
  TRACK 20 AUDIO
    TITLE "1Q_t_1978-1987_20"
    INDEX 01 00:28:58
  TRACK 21 AUDIO
    TITLE "1Q_t_1978-1987_21"
    INDEX 01 00:29:65
  TRACK 22 AUDIO
    TITLE "1Q_t_1978-1987_22"
    INDEX 01 00:29:75
  TRACK 23 AUDIO
    TITLE "1Q_t_1978-1987_23"
    INDEX 01 00:31:44
  TRACK 24 AUDIO
    TITLE "1Q_t_1978-1987_24"
    INDEX 01 00:31:50
  TRACK 25 AUDIO
    TITLE "1Q_t_1978-1987_25"
    INDEX 01 00:36:45
  TRACK 26 AUDIO
    TITLE "1Q_t_1978-1987_26"
    INDEX 01 00:37:17
  TRACK 27 AUDIO
    TITLE "1Q_t_1978-1987_27"
    INDEX 01 00:38:36
  TRACK 28 AUDIO
    TITLE "1Q_t_1978-1987_28"
    INDEX 01 00:38:48
  TRACK 29 AUDIO
    TITLE "1Q_t_1978-1987_29"
    INDEX 01 00:40:59
  TRACK 30 AUDIO
    TITLE "1Q_t_1978-1987_30"
    INDEX 01 00:40:67
  TRACK 31 AUDIO
    TITLE "1Q_t_1978-1987_31"
    INDEX 01 00:45:11
  TRACK 32 AUDIO
    TITLE "1Q_t_1978-1987_32"
    INDEX 01 00:45:58
  TRACK 33 AUDIO
    TITLE "1Q_t_1978-1987_33"
    INDEX 01 00:47:04
  TRACK 34 AUDIO
    TITLE "1Q_t_1978-1987_34"
    INDEX 01 00:47:14
  TRACK 35 AUDIO
    TITLE "1Q_t_1978-1987_35"
    INDEX 01 00:48:27
  TRACK 36 AUDIO
    TITLE "1Q_t_1978-1987_36"
    INDEX 01 00:48:37
  TRACK 37 AUDIO
    TITLE "1Q_t_1978-1987_37"
    INDEX 01 00:52:68
  TRACK 38 AUDIO
    TITLE "1Q_t_1978-1987_38"
    INDEX 01 00:53:40
  TRACK 39 AUDIO
    TITLE "1Q_t_1978-1987_39"
    INDEX 01 00:54:55
  TRACK 40 AUDIO
    TITLE "1Q_t_1978-1987_40"
    INDEX 01 00:54:65
  TRACK 41 AUDIO
    TITLE "1Q_t_1978-1987_41"
    INDEX 01 00:58:27
  TRACK 42 AUDIO
    TITLE "1Q_t_1978-1987_42"
    INDEX 01 00:58:37
  TRACK 43 AUDIO
    TITLE "1Q_t_1978-1987_43"
    INDEX 01 01:03:05
  TRACK 44 AUDIO
    TITLE "1Q_t_1978-1987_44"
    INDEX 01 01:03:52
  TRACK 45 AUDIO
    TITLE "1Q_t_1978-1987_45"
    INDEX 01 01:04:67
  TRACK 46 AUDIO
    TITLE "1Q_t_1978-1987_46"
    INDEX 01 01:05:02
  TRACK 47 AUDIO
    TITLE "1Q_t_1978-1987_47"
    INDEX 01 01:06:29
  TRACK 48 AUDIO
    TITLE "1Q_t_1978-1987_48"
    INDEX 01 01:06:39
  TRACK 49 AUDIO
    TITLE "1Q_t_1978-1987_49"
    INDEX 01 01:11:24
  TRACK 50 AUDIO
    TITLE "1Q_t_1978-1987_50"
    INDEX 01 01:11:71
  TRACK 51 AUDIO
    TITLE "1Q_t_1978-1987_51"
    INDEX 01 01:13:11
  TRACK 52 AUDIO
    TITLE "1Q_t_1978-1987_52"
    INDEX 01 01:13:21
  TRACK 53 AUDIO
    TITLE "1Q_t_1978-1987_53"
    INDEX 01 01:15:49
  TRACK 54 AUDIO
    TITLE "1Q_t_1978-1987_54"
    INDEX 01 01:15:59
  TRACK 55 AUDIO
    TITLE "1Q_t_1978-1987_55"
    INDEX 01 01:20:49
  TRACK 56 AUDIO
    TITLE "1Q_t_1978-1987_56"
    INDEX 01 01:21:19
  TRACK 57 AUDIO
    TITLE "1Q_t_1978-1987_57"
    INDEX 01 01:22:36
  TRACK 58 AUDIO
    TITLE "1Q_t_1978-1987_58"
    INDEX 01 01:22:45
  TRACK 59 AUDIO
    TITLE "1Q_t_1978-1987_59"
    INDEX 01 01:25:03
  TRACK 60 AUDIO
    TITLE "1Q_t_1978-1987_60"
    INDEX 01 01:25:12
  TRACK 61 AUDIO
    TITLE "1Q_t_1978-1987_61"
    INDEX 01 01:29:65
